<mxfile host="app.diagrams.net" modified="2020-08-06T10:15:53.629Z" agent="5.0 (Windows NT 10.0; WOW64) AppleWebKit/537.36 (KHTML, like Gecko) Chrome/84.0.4147.89 Safari/537.36" etag="mkJEPvSRYBjDv2lc3jju" version="13.6.0" type="github">
  <diagram name="Page-1" id="c7558073-3199-34d8-9f00-42111426c3f3">
    <mxGraphModel dx="1022" dy="437" grid="1" gridSize="10" guides="1" tooltips="1" connect="1" arrows="1" fold="1" page="1" pageScale="1" pageWidth="826" pageHeight="1169" background="#ffffff" math="0" shadow="0">
      <root>
        <mxCell id="0" />
        <mxCell id="1" parent="0" />
        <mxCell id="XLyHiK7luFs71y9byM20-103" style="edgeStyle=orthogonalEdgeStyle;rounded=1;orthogonalLoop=1;jettySize=auto;html=1;exitX=1;exitY=0.5;exitDx=0;exitDy=0;entryX=0;entryY=0.5;entryDx=0;entryDy=0;strokeColor=#9C0000;fontFamily=Helvetica;fontSize=12;fontColor=#9C0000;" edge="1" parent="1" source="3" target="12">
          <mxGeometry relative="1" as="geometry" />
        </mxCell>
        <mxCell id="3" value="Select server from Server List" style="whiteSpace=wrap;align=center;verticalAlign=middle;fontStyle=1;strokeWidth=3;fillColor=#ffe6cc;fontSize=12;strokeColor=#d79b00;fontFamily=Helvetica;" parent="1" vertex="1">
          <mxGeometry x="135" y="70" width="90" height="60" as="geometry" />
        </mxCell>
        <mxCell id="XLyHiK7luFs71y9byM20-102" style="edgeStyle=orthogonalEdgeStyle;rounded=1;orthogonalLoop=1;jettySize=auto;html=1;exitX=1;exitY=0.5;exitDx=0;exitDy=0;entryX=0;entryY=0.5;entryDx=0;entryDy=0;fontFamily=Helvetica;fontSize=12;fontColor=#9C0000;fontStyle=0;labelBorderColor=none;strokeColor=#9C0000;" edge="1" parent="1" source="12" target="XLyHiK7luFs71y9byM20-98">
          <mxGeometry relative="1" as="geometry" />
        </mxCell>
        <mxCell id="12" value="List sudoers groups" style="whiteSpace=wrap;align=center;verticalAlign=middle;fontStyle=1;strokeWidth=3;fillColor=#ffe6cc;strokeColor=#d79b00;fontFamily=Helvetica;fontSize=12;" parent="1" vertex="1">
          <mxGeometry x="276" y="70.00000000000003" width="90" height="60" as="geometry" />
        </mxCell>
        <mxCell id="XLyHiK7luFs71y9byM20-96" value="&lt;h2&gt;Start&lt;/h2&gt;" style="rounded=0;whiteSpace=wrap;html=1;" vertex="1" parent="1">
          <mxGeometry x="20" y="80" width="60" height="40" as="geometry" />
        </mxCell>
        <mxCell id="XLyHiK7luFs71y9byM20-105" style="edgeStyle=orthogonalEdgeStyle;rounded=1;orthogonalLoop=1;jettySize=auto;html=1;exitX=1;exitY=0.5;exitDx=0;exitDy=0;entryX=0;entryY=0.5;entryDx=0;entryDy=0;strokeColor=#9C0000;fontFamily=Helvetica;fontSize=12;fontColor=#9C0000;" edge="1" parent="1" source="XLyHiK7luFs71y9byM20-98" target="XLyHiK7luFs71y9byM20-104">
          <mxGeometry relative="1" as="geometry" />
        </mxCell>
        <mxCell id="XLyHiK7luFs71y9byM20-98" value="&lt;span style=&quot;font-size: 12px&quot;&gt;Get Information of users in each Sudoer group&lt;/span&gt;" style="rounded=0;whiteSpace=wrap;html=1;fontSize=12;fillColor=#ffe6cc;strokeWidth=3;strokeColor=#d79b00;fontFamily=Helvetica;fontStyle=1" vertex="1" parent="1">
          <mxGeometry x="420" y="70" width="120" height="60" as="geometry" />
        </mxCell>
        <mxCell id="XLyHiK7luFs71y9byM20-107" style="edgeStyle=orthogonalEdgeStyle;rounded=1;orthogonalLoop=1;jettySize=auto;html=1;exitX=0.5;exitY=1;exitDx=0;exitDy=0;entryX=0.5;entryY=0;entryDx=0;entryDy=0;strokeColor=#9C0000;fontFamily=Helvetica;fontSize=12;fontColor=#9C0000;" edge="1" parent="1" source="XLyHiK7luFs71y9byM20-104" target="XLyHiK7luFs71y9byM20-106">
          <mxGeometry relative="1" as="geometry" />
        </mxCell>
        <mxCell id="XLyHiK7luFs71y9byM20-104" value="Get info of sudo root users" style="whiteSpace=wrap;align=center;verticalAlign=middle;fontStyle=1;strokeWidth=3;fillColor=#ffe6cc;fontSize=12;strokeColor=#d79b00;fontFamily=Helvetica;" vertex="1" parent="1">
          <mxGeometry x="590" y="70" width="90" height="60" as="geometry" />
        </mxCell>
        <mxCell id="XLyHiK7luFs71y9byM20-109" style="edgeStyle=orthogonalEdgeStyle;rounded=1;orthogonalLoop=1;jettySize=auto;html=1;exitX=0;exitY=0.5;exitDx=0;exitDy=0;entryX=1;entryY=0.5;entryDx=0;entryDy=0;strokeColor=#9C0000;fontFamily=Helvetica;fontSize=12;fontColor=#9C0000;" edge="1" parent="1" source="XLyHiK7luFs71y9byM20-106" target="XLyHiK7luFs71y9byM20-108">
          <mxGeometry relative="1" as="geometry" />
        </mxCell>
        <mxCell id="XLyHiK7luFs71y9byM20-106" value="Get Info of users in AD" style="whiteSpace=wrap;align=center;verticalAlign=middle;fontStyle=1;strokeWidth=3;fillColor=#ffe6cc;fontSize=12;strokeColor=#d79b00;fontFamily=Helvetica;" vertex="1" parent="1">
          <mxGeometry x="590" y="176" width="90" height="60" as="geometry" />
        </mxCell>
        <mxCell id="XLyHiK7luFs71y9byM20-111" style="edgeStyle=orthogonalEdgeStyle;rounded=1;orthogonalLoop=1;jettySize=auto;html=1;exitX=0;exitY=0.5;exitDx=0;exitDy=0;entryX=1;entryY=0.5;entryDx=0;entryDy=0;strokeColor=#9C0000;fontFamily=Helvetica;fontSize=12;fontColor=#9C0000;" edge="1" parent="1" source="XLyHiK7luFs71y9byM20-108" target="XLyHiK7luFs71y9byM20-110">
          <mxGeometry relative="1" as="geometry" />
        </mxCell>
        <mxCell id="XLyHiK7luFs71y9byM20-108" value="Input details to excel present on jump server" style="whiteSpace=wrap;align=center;verticalAlign=middle;fontStyle=1;strokeWidth=3;fillColor=#ffe6cc;fontSize=12;strokeColor=#d79b00;fontFamily=Helvetica;" vertex="1" parent="1">
          <mxGeometry x="420" y="176" width="120" height="60" as="geometry" />
        </mxCell>
        <mxCell id="XLyHiK7luFs71y9byM20-112" style="edgeStyle=orthogonalEdgeStyle;rounded=1;orthogonalLoop=1;jettySize=auto;html=1;exitX=0;exitY=0.5;exitDx=0;exitDy=0;entryX=0.5;entryY=1;entryDx=0;entryDy=0;strokeColor=#9C0000;fontFamily=Helvetica;fontSize=12;fontColor=#9C0000;" edge="1" parent="1" source="XLyHiK7luFs71y9byM20-110" target="3">
          <mxGeometry relative="1" as="geometry" />
        </mxCell>
        <mxCell id="XLyHiK7luFs71y9byM20-110" value="Check server count" style="whiteSpace=wrap;align=center;verticalAlign=middle;fontStyle=1;strokeWidth=3;fillColor=#ffe6cc;fontSize=12;strokeColor=#d79b00;fontFamily=Helvetica;" vertex="1" parent="1">
          <mxGeometry x="276" y="176" width="90" height="60" as="geometry" />
        </mxCell>
        <mxCell id="XLyHiK7luFs71y9byM20-113" value="Move to next server" style="text;html=1;strokeColor=none;fillColor=none;align=center;verticalAlign=middle;whiteSpace=wrap;rounded=0;fontFamily=Helvetica;fontSize=12;fontColor=#9C0000;" vertex="1" parent="1">
          <mxGeometry x="140" y="176" width="40" height="20" as="geometry" />
        </mxCell>
      </root>
    </mxGraphModel>
  </diagram>
</mxfile>
